<svg width="10" height="73" viewBox="0 0 10 73" fill="none" xmlns="http://www.w3.org/2000/svg">
<path fill-rule="evenodd" clip-rule="evenodd" d="M2.22273 0.103386C3.8229 -0.3263 5.46842 0.622562 5.8981 2.22273C9.25998 14.7425 9.09326 27.811 8.9348 40.2326C8.91171 42.0426 8.8888 43.8389 8.877 45.6177C8.85305 49.2283 8.79522 52.7744 8.73764 56.3045C8.66332 60.8616 8.58943 65.3921 8.58943 70.0007C8.58943 71.6576 7.24629 73.0007 5.58943 73.0007C3.93258 73.0007 2.58943 71.6576 2.58943 70.0007C2.58943 65.4064 2.66496 60.736 2.74001 56.0959C2.79725 52.5565 2.8542 49.0347 2.87713 45.5779C2.8893 43.7433 2.91151 41.9152 2.93364 40.0941C3.08548 27.5985 3.23329 15.4346 0.103386 3.77876C-0.3263 2.1786 0.622562 0.533073 2.22273 0.103386Z" fill="white"/>
<path fill-rule="evenodd" clip-rule="evenodd" d="M2.22273 0.103386C3.8229 -0.3263 5.46842 0.622562 5.8981 2.22273C9.25998 14.7425 9.09326 27.811 8.9348 40.2326C8.91171 42.0426 8.8888 43.8389 8.877 45.6177C8.85305 49.2283 8.79522 52.7744 8.73764 56.3045C8.66332 60.8616 8.58943 65.3921 8.58943 70.0007C8.58943 71.6576 7.24629 73.0007 5.58943 73.0007C3.93258 73.0007 2.58943 71.6576 2.58943 70.0007C2.58943 65.4064 2.66496 60.736 2.74001 56.0959C2.79725 52.5565 2.8542 49.0347 2.87713 45.5779C2.8893 43.7433 2.91151 41.9152 2.93364 40.0941C3.08548 27.5985 3.23329 15.4346 0.103386 3.77876C-0.3263 2.1786 0.622562 0.533073 2.22273 0.103386Z" fill="url(#paint0_linear)"/>
<defs>
<linearGradient id="paint0_linear" x1="3.06854" y1="8.58406" x2="6.29704" y2="8.59964" gradientUnits="userSpaceOnUse">
<stop stop-color="#748AFB"/>
<stop offset="1" stop-color="#958CFF" stop-opacity="0.5"/>
</linearGradient>
</defs>
</svg>
